<?xml version="1.0" standalone="no"?>
<!DOCTYPE svg PUBLIC "-//W3C//DTD SVG 20010904//EN"
 "http://www.w3.org/TR/2001/REC-SVG-20010904/DTD/svg10.dtd">
<svg version="1.0" xmlns="http://www.w3.org/2000/svg"
 width="700.000000pt" height="700.000000pt" viewBox="0 0 700.000000 700.000000"
 preserveAspectRatio="xMidYMid meet">
<metadata>
Created by potrace 1.11, written by Peter Selinger 2001-2013
</metadata>
<g transform="translate(0.000000,700.000000) scale(0.100000,-0.100000)"
fill="#000000" stroke="none">
<path d="M675 6958 c-308 -37 -576 -294 -627 -601 -10 -59 -13 -670 -12 -2888
l1 -2814 22 -80 c75 -279 307 -494 586 -543 22 -4 1313 -7 2870 -7 2690 0
2833 1 2895 18 284 78 498 315 543 598 10 68 12 626 11 2889 l-1 2805 -21 78
c-76 280 -317 499 -597 543 -63 10 -5589 12 -5670 2z"/>
</g>
</svg>
