<?xml version="1.0" encoding="utf-8"?>
<!-- Generator: Adobe Illustrator 23.0.1, SVG Export Plug-In . SVG Version: 6.00 Build 0)  -->
<svg version="1.1" id="Capa_1" xmlns="http://www.w3.org/2000/svg" xmlns:xlink="http://www.w3.org/1999/xlink" x="0px" y="0px"
	 viewBox="0 0 60 60" style="enable-background:new 0 0 60 60;" xml:space="preserve">
<style type="text/css">
	.st0{fill:#292E35;}
	.st1{fill:#AFAFAF;}
</style>
<g>
	<path class="st0" d="M53,47c2.2,0,4-1.8,4-4s-1.8-4-4-4s-4,1.8-4,4S50.8,47,53,47z M53,41c1.1,0,2,0.9,2,2s-0.9,2-2,2s-2-0.9-2-2
		S51.9,41,53,41z"/>
	<path class="st0" d="M4,48c0.6,0,1-0.4,1-1v-4c0-0.6-0.4-1-1-1s-1,0.4-1,1v4C3,47.6,3.4,48,4,48z"/>
	<path class="st0" d="M4,41c0.6,0,1-0.4,1-1v-1c0-0.6-0.4-1-1-1s-1,0.4-1,1v1C3,40.6,3.4,41,4,41z"/>
	<path class="st0" d="M4,22c0.6,0,1-0.4,1-1c0-6.1,4.9-11,11-11h2.6l-4.3,4.3c-0.4,0.4-0.4,1,0,1.4c0.2,0.2,0.5,0.3,0.7,0.3
		s0.5-0.1,0.7-0.3l6-6c0.1-0.1,0.2-0.2,0.2-0.3c0.1-0.2,0.1-0.5,0-0.8c-0.1-0.1-0.1-0.2-0.2-0.3l-6-6c-0.4-0.4-1-0.4-1.4,0
		s-0.4,1,0,1.4L18.6,8H16C8.8,8,3,13.8,3,21C3,21.6,3.4,22,4,22z"/>
	<path class="st0" d="M59.9,29.5c0-0.2-0.1-0.4-0.2-0.7c0,0,0-0.1,0-0.1C59,27.1,57.4,26,55.6,26H4.4C2,26,0,28,0,30.4v25.2v0v0.5
		c0,0.2,0,0.3,0.1,0.4c0,0.2,0.1,0.4,0.2,0.7c0,0,0,0.1,0,0.1C1,58.9,2.6,60,4.4,60h51.2c2.4,0,4.4-2,4.4-4.4V30.4v0v-0.5
		C60,29.8,60,29.6,59.9,29.5z M4.4,58c-0.8,0-1.5-0.4-2-1c0,0,0,0,0,0c-0.1-0.1-0.1-0.2-0.2-0.3c0,0,0-0.1-0.1-0.1
		c0-0.1-0.1-0.2-0.1-0.3c0-0.1,0-0.2,0-0.4c0-0.1,0-0.1,0-0.2V30.4C2,29.1,3.1,28,4.4,28H6v30H4.4z M46,58H33h-1.5h-2.7h-0.9h-2.7
		h-0.9h-2.7h-0.9h-2.7h-0.9h-2.7h-0.9h-2.7H9.6H8v0V28h4h2h32V58L46,58z M58,55.6L58,55.6c0,1.4-1.1,2.4-2.4,2.4H48v0V28h4h2h1.6
		c0.8,0,1.5,0.4,2,1c0,0,0,0,0,0c0.1,0.1,0.1,0.2,0.2,0.3c0,0,0,0.1,0.1,0.1c0,0.1,0.1,0.2,0.1,0.3c0,0.1,0,0.2,0,0.4
		c0,0.1,0,0.1,0,0.2V55.6z"/>
	<g>
		<path class="st1" d="M36,6h-1c-0.6,0-1,0.4-1,1s0.4,1,1,1h1c0.6,0,1-0.4,1-1S36.6,6,36,6z"/>
		<path class="st1" d="M51,6c-0.6,0-1,0.4-1,1s0.4,1,1,1h1c0.6,0,1-0.4,1-1s-0.4-1-1-1H51z"/>
		<path class="st1" d="M55,6c-0.6,0-1,0.4-1,1s0.4,1,1,1h1c0.6,0,1-0.4,1-1s-0.4-1-1-1H55z"/>
		<path class="st1" d="M40,6h-1c-0.6,0-1,0.4-1,1s0.4,1,1,1h1c0.6,0,1-0.4,1-1S40.6,6,40,6z"/>
		<path class="st1" d="M47,6c-0.6,0-1,0.4-1,1s0.4,1,1,1h1c0.6,0,1-0.4,1-1s-0.4-1-1-1H47z"/>
		<path class="st1" d="M44,6h-1c-0.6,0-1,0.4-1,1s0.4,1,1,1h1c0.6,0,1-0.4,1-1S44.6,6,44,6z"/>
		<path class="st1" d="M32,6h-1c-0.6,0-1,0.4-1,1s0.4,1,1,1h1c0.6,0,1-0.4,1-1S32.6,6,32,6z"/>
		<path class="st1" d="M58,22.9c0,0.6,0.4,1,1,1s1-0.4,1-1v-1c0-0.6-0.4-1-1-1s-1,0.4-1,1V22.9z"/>
		<path class="st1" d="M58,15c0,0.6,0.4,1,1,1s1-0.4,1-1v-1c0-0.6-0.4-1-1-1s-1,0.4-1,1V15z"/>
		<path class="st1" d="M46.7,2h1c0.6,0,1-0.4,1-1s-0.4-1-1-1h-1c-0.6,0-1,0.4-1,1S46.2,2,46.7,2z"/>
		<path class="st1" d="M54.7,2h1c0.6,0,1-0.4,1-1s-0.5-1-1-1h-0.9c-0.6,0-1,0.4-1,1S54.1,2,54.7,2z"/>
		<path class="st1" d="M50.7,2h1c0.6,0,1-0.4,1-1s-0.4-1-1-1h-1c-0.6,0-1,0.4-1,1S50.1,2,50.7,2z"/>
		<path class="st1" d="M57.8,3.5c0.2,0.4,0.5,0.6,0.9,0.6c0.1,0,0.3,0,0.4-0.1c0.5-0.2,0.8-0.8,0.5-1.3C59.5,2.3,59.3,2,59,1.6
			c-0.3-0.4-1-0.5-1.4-0.1s-0.5,1-0.1,1.4C57.6,3.1,57.7,3.3,57.8,3.5z"/>
		<path class="st1" d="M59,12c0.6,0,1-0.4,1-1v-1c0-0.6-0.4-1-1-1s-1,0.4-1,1v1C58,11.6,58.4,12,59,12z"/>
		<path class="st1" d="M58,19c0,0.6,0.4,1,1,1s1-0.4,1-1v-1c0-0.6-0.4-1-1-1s-1,0.4-1,1V19z"/>
		<path class="st1" d="M59,5.1c-0.6,0-1,0.4-1,1v1c0,0.6,0.4,1,1,1s1-0.4,1-1v-1C60,5.5,59.6,5.1,59,5.1z"/>
		<path class="st1" d="M28,12.6c0.6,0,1-0.4,1-1v-1c0-0.6-0.4-1-1-1s-1,0.4-1,1v1C27,12.1,27.4,12.6,28,12.6z"/>
		<path class="st1" d="M28,16.6c0.6,0,1-0.4,1-1v-1c0-0.6-0.4-1-1-1s-1,0.4-1,1v1C27,16.1,27.4,16.6,28,16.6z"/>
		<path class="st1" d="M28,24.5c0.6,0,1-0.4,1-1v-1c0-0.6-0.4-1-1-1s-1,0.4-1,1v1C27,24.1,27.4,24.5,28,24.5z"/>
		<path class="st1" d="M42.7,2h1c0.6,0,1-0.4,1-1s-0.4-1-1-1h-1c-0.6,0-1,0.4-1,1S42.2,2,42.7,2z"/>
		<path class="st1" d="M28,8.6c0.6,0,1-0.4,1-1v-1c0-0.6-0.4-1-1-1s-1,0.4-1,1v1C27,8.2,27.4,8.6,28,8.6z"/>
		<path class="st1" d="M28,20.5c0.6,0,1-0.4,1-1v-1c0-0.6-0.4-1-1-1s-1,0.4-1,1v1C27,20.1,27.4,20.5,28,20.5z"/>
		<path class="st1" d="M38.8,2h1c0.6,0,1-0.4,1-1s-0.4-1-1-1h-1c-0.6,0-1,0.4-1,1S38.2,2,38.8,2z"/>
		<path class="st1" d="M34.8,2h1c0.6,0,1-0.4,1-1s-0.4-1-1-1h-1c-0.6,0-1,0.4-1,1S34.2,2,34.8,2z"/>
		<path class="st1" d="M27.9,4.6c0.1,0,0.2,0,0.2,0c0.5,0,0.9-0.3,1-0.8c0.1-0.2,0.1-0.4,0.3-0.6c0.3-0.5,0.1-1.1-0.4-1.4
			c-0.5-0.3-1.1-0.1-1.4,0.4c-0.2,0.4-0.4,0.8-0.5,1.2C27,3.9,27.3,4.5,27.9,4.6z"/>
		<path class="st1" d="M30.8,2.1c0.1,0,0.1,0,0.2,0c0.1,0,0.3,0,0.4,0h0.4c0.6,0,1-0.4,1-1s-0.4-1-1-1h-0.4c-0.3,0-0.5,0-0.8,0.1
			c-0.5,0.1-0.9,0.6-0.8,1.2C29.9,1.7,30.3,2.1,30.8,2.1z"/>
		<path class="st1" d="M4.4,26h51.2c1.8,0,3.4,1.1,4.1,2.7c-0.1-0.3-0.3-0.6-0.5-0.8c0.5-0.1,0.8-0.5,0.8-1v-1c0-0.6-0.4-1-1-1
			s-1,0.4-1,1v0.8c0,0,0,0,0,0c-0.2-0.1-0.4-0.2-0.6-0.3c-0.1,0-0.1-0.1-0.2-0.1c0,0-0.1,0-0.1-0.1c0,0-0.1,0-0.1,0
			c-0.4-0.2-0.9-0.2-1.4-0.2H54h-0.9h-2.7h-0.9h-2.7h-0.9h-2.7h-0.9h-2.7h-0.9h-2.7h-0.9h-2.7h-0.9h-2.4c-0.2-0.3-0.5-0.5-0.9-0.5
			c-0.4,0-0.7,0.2-0.8,0.5L4.4,26C2,26,0,28,0,30.4v0C0,28,2,26,4.4,26z"/>
	</g>
</g>
</svg>
